<mxfile host="app.diagrams.net" modified="2021-01-07T07:32:38.936Z" agent="5.0 (Windows NT 6.1; Win64; x64) AppleWebKit/537.36 (KHTML, like Gecko) Chrome/87.0.4280.88 Safari/537.36" etag="ZroVKqcGaufMcIu0iU06" version="14.1.3" type="github">
  <diagram name="Page-1" id="c7488fd3-1785-93aa-aadb-54a6760d102a">
    <mxGraphModel dx="1102" dy="593" grid="1" gridSize="10" guides="1" tooltips="1" connect="1" arrows="1" fold="1" page="1" pageScale="1" pageWidth="1100" pageHeight="850" background="#ffffff" math="0" shadow="0">
      <root>
        <mxCell id="0" />
        <mxCell id="1" parent="0" />
        <mxCell id="A2808Gje4WqavZfzMcam-1" value="" style="ellipse;whiteSpace=wrap;html=1;aspect=fixed;" vertex="1" parent="1">
          <mxGeometry x="380" y="770" width="80" height="80" as="geometry" />
        </mxCell>
        <mxCell id="A2808Gje4WqavZfzMcam-2" value="Authorization&lt;br&gt;Server" style="ellipse;whiteSpace=wrap;html=1;fillColor=#17A2FF;fontColor=#FFFFFF;" vertex="1" parent="1">
          <mxGeometry x="250" y="140" width="120" height="80" as="geometry" />
        </mxCell>
        <mxCell id="A2808Gje4WqavZfzMcam-3" value="Client" style="rounded=0;whiteSpace=wrap;html=1;fillColor=#17A2FF;fontColor=#FFFFFF;" vertex="1" parent="1">
          <mxGeometry x="130" y="395" width="120" height="60" as="geometry" />
        </mxCell>
        <mxCell id="A2808Gje4WqavZfzMcam-4" value="" style="whiteSpace=wrap;html=1;aspect=fixed;" vertex="1" parent="1">
          <mxGeometry x="870" y="150" width="460" height="460" as="geometry" />
        </mxCell>
        <mxCell id="A2808Gje4WqavZfzMcam-5" value="Gateway" style="rounded=0;whiteSpace=wrap;html=1;fillColor=#17A2FF;fontColor=#FFFFFF;" vertex="1" parent="1">
          <mxGeometry x="580" y="170" width="70" height="320" as="geometry" />
        </mxCell>
        <mxCell id="A2808Gje4WqavZfzMcam-6" value="Service A" style="ellipse;whiteSpace=wrap;html=1;fillColor=#17A2FF;fontColor=#FFFFFF;" vertex="1" parent="1">
          <mxGeometry x="960" y="200" width="120" height="80" as="geometry" />
        </mxCell>
        <mxCell id="A2808Gje4WqavZfzMcam-7" value="Service B" style="ellipse;whiteSpace=wrap;html=1;fillColor=#17A2FF;fontColor=#FFFFFF;" vertex="1" parent="1">
          <mxGeometry x="960" y="360" width="120" height="80" as="geometry" />
        </mxCell>
        <mxCell id="A2808Gje4WqavZfzMcam-8" value="Service D" style="ellipse;whiteSpace=wrap;html=1;fillColor=#17A2FF;fontColor=#FFFFFF;" vertex="1" parent="1">
          <mxGeometry x="1100" y="500" width="120" height="80" as="geometry" />
        </mxCell>
        <mxCell id="A2808Gje4WqavZfzMcam-9" value="Service C" style="ellipse;whiteSpace=wrap;html=1;fillColor=#17A2FF;fontColor=#FFFFFF;" vertex="1" parent="1">
          <mxGeometry x="1150" y="300" width="120" height="80" as="geometry" />
        </mxCell>
        <mxCell id="A2808Gje4WqavZfzMcam-10" value="" style="endArrow=classic;html=1;fontColor=#FFFFFF;exitX=0.5;exitY=1;exitDx=0;exitDy=0;" edge="1" parent="1" source="A2808Gje4WqavZfzMcam-6" target="A2808Gje4WqavZfzMcam-7">
          <mxGeometry width="50" height="50" relative="1" as="geometry">
            <mxPoint x="720" y="430" as="sourcePoint" />
            <mxPoint x="770" y="380" as="targetPoint" />
          </mxGeometry>
        </mxCell>
        <mxCell id="A2808Gje4WqavZfzMcam-11" value="" style="endArrow=classic;html=1;fontColor=#FFFFFF;exitX=0.5;exitY=1;exitDx=0;exitDy=0;" edge="1" parent="1" source="A2808Gje4WqavZfzMcam-9" target="A2808Gje4WqavZfzMcam-8">
          <mxGeometry width="50" height="50" relative="1" as="geometry">
            <mxPoint x="720" y="430" as="sourcePoint" />
            <mxPoint x="770" y="380" as="targetPoint" />
          </mxGeometry>
        </mxCell>
        <mxCell id="A2808Gje4WqavZfzMcam-12" value="" style="endArrow=classic;html=1;fontColor=#FFFFFF;exitX=0.5;exitY=1;exitDx=0;exitDy=0;" edge="1" parent="1" source="A2808Gje4WqavZfzMcam-7" target="A2808Gje4WqavZfzMcam-8">
          <mxGeometry width="50" height="50" relative="1" as="geometry">
            <mxPoint x="720" y="430" as="sourcePoint" />
            <mxPoint x="770" y="380" as="targetPoint" />
          </mxGeometry>
        </mxCell>
      </root>
    </mxGraphModel>
  </diagram>
</mxfile>
